<?xml version="1.0" standalone="no"?><svg xmlns="http://www.w3.org/2000/svg" viewBox="0 0 1440 320"><path fill="#8dcaff" fill-opacity="1" d="M0,288L26.7,272C53.3,256,107,224,160,229.3C213.3,235,267,277,320,266.7C373.3,256,427,192,480,154.7C533.3,117,587,107,640,122.7C693.3,139,747,181,800,165.3C853.3,149,907,75,960,42.7C1013.3,11,1067,21,1120,69.3C1173.3,117,1227,203,1280,197.3C1333.3,192,1387,96,1413,48L1440,0L1440,320L1413.3,320C1386.7,320,1333,320,1280,320C1226.7,320,1173,320,1120,320C1066.7,320,1013,320,960,320C906.7,320,853,320,800,320C746.7,320,693,320,640,320C586.7,320,533,320,480,320C426.7,320,373,320,320,320C266.7,320,213,320,160,320C106.7,320,53,320,27,320L0,320Z"></path></svg>